<svg width="293" height="270" viewBox="0 0 293 270" fill="none" xmlns="http://www.w3.org/2000/svg">
<path d="M209.301 56.9175C203.666 56.9175 190.762 54.1614 190.762 63.1689C190.762 68.7366 193.692 77.0713 199.629 77.0713C206.01 77.0713 210.131 77.8376 213.153 71.1931C214.606 67.9965 214.606 56.9175 209.301 56.9175Z" fill="#7CC2F6"/>
<path d="M134.891 48.319C130.414 48.319 127.935 50.7727 127.039 51.8791C124.975 54.4276 121.153 55.309 119.605 58.1305C115.415 65.7691 122.001 69.7852 127.935 72.0328C141.337 76.9239 150.601 47.5455 134.891 48.319Z" fill="#7CC2F6"/>
<path d="M32.1337 111.501H80.4078M32.1337 111.501C31.7349 111.501 31.3171 111.497 30.8839 111.493M32.1337 111.501C31.7101 111.501 31.2936 111.498 30.8839 111.493M30.8839 111.493C11.831 111.25 7.58901 105.423 5.44406 99.2777C3.05637 92.4372 4.63776 86.7752 9.47438 81.7365C12.1964 79.9455 18.9797 72.0328 26.0434 72.0328C30.05 71.6047 32.8803 69.779 36.5223 68.7672C43.1519 66.9254 50.4299 66.1547 57.3008 66.1547C63.9635 66.1547 72.4686 67.8092 78.8405 65.7348C85.0051 63.7279 93.1335 64.2805 97.9621 59.2501C99.2273 57.9321 100.431 54.538 100.962 52.7655C101.837 49.8494 120.507 22.282 122.323 19.969C143.062 8.59081 164.062 -10.4092 210.99 17.4497C215.486 17.4497 219.967 16.6099 224.29 16.6099C232.198 16.6099 234.635 27.8205 238.754 32.8916C243.151 38.3042 251.607 40.6837 255.279 46.4207C258.786 51.9019 263.246 57.8389 265.444 64.0553C266.877 68.1065 275.071 69.2995 275.475 72.8725C275.657 74.4808 277.917 79.8023 278.699 81.2699C280.382 84.4248 280.614 88.0724 282.103 91.3468C282.787 92.8516 282.633 93.8871 282.73 95.5455C282.841 97.465 284.342 97.8415 284.342 100.211C284.342 110.502 286.823 120.924 287.611 131.188C288.088 137.399 289.178 143.113 289.178 149.475V166.97C289.178 183.388 291.095 201.464 286.357 217.261C285 221.785 285.691 224.605 283.356 229.064C281.448 232.709 278.621 235.928 276.684 239.561C275.044 242.637 272.704 245.45 270.639 248.005L270.498 248.179C268.61 250.515 266.673 252.912 264.145 254.723C257.253 259.659 246.585 262.499 238.396 263.447C233.255 264.042 228.913 265.173 223.529 265.173H213.408C194.765 265.173 175.786 266.013 156.984 266.013H144.893C142.302 266.013 139.416 266.373 136.922 265.546C134.99 264.906 133.091 263.574 131.011 263.493C125.024 263.262 120.863 255.498 115.875 252.763C113.992 251.731 111.806 251.437 109.874 250.431C107.964 249.436 106.847 247.557 104.993 246.699C101.621 245.137 99.5404 241.59 97.9621 238.301C96.4794 235.212 93.4063 232.259 91.3344 229.484C90.4839 228.345 87.7252 225.138 87.6624 224.026C87.5755 222.487 87.1523 221.348 86.0503 220.2C84.5959 218.685 84.8014 217.334 83.6321 215.628C82.7866 214.395 83.2023 212.953 82.3782 211.849C80.9801 209.977 79.6714 209.002 79.6018 206.391C79.4865 202.069 77.1836 198.616 77.1836 194.261V186.5C77.1836 182.748 78.0616 176.5 80.2287 171.5C80.4078 152.5 72.0616 139.5 72.0616 139.5C59.5616 141 -0.959294 142.5 3.20499 131.654C4.54112 128.174 5.0382 122.932 8.26528 120.691C10.4855 119.149 12.8079 116.779 14.7586 114.859C18.4353 111.242 25.7468 111.44 30.8839 111.493ZM134.891 48.319C130.414 48.319 127.935 50.7727 127.039 51.8791C124.975 54.4276 121.153 55.309 119.605 58.1305C115.415 65.7691 122.001 69.7852 127.935 72.0328C141.337 76.9239 150.601 47.5455 134.891 48.319ZM209.301 56.9175C203.666 56.9175 190.762 54.1614 190.762 63.1689C190.762 68.7366 193.692 77.0713 199.629 77.0713C206.01 77.0713 210.131 77.8376 213.153 71.1931C214.606 67.9965 214.606 56.9175 209.301 56.9175Z" stroke="black" stroke-width="6" stroke-linecap="round"/>
</svg>
