<svg width="293" height="270" viewBox="0 0 293 270" fill="none" xmlns="http://www.w3.org/2000/svg">
<path d="M78.0216 114.69C56.0088 113.383 7.44348 105.006 5.44406 99.2777C3.05637 92.4372 4.63776 86.7752 9.47438 81.7365C12.1964 79.9455 18.9797 72.0328 26.0434 72.0328C30.05 71.6047 32.8803 69.779 36.5223 68.7672C43.1519 66.9254 50.4299 66.1547 57.3008 66.1547C63.9635 66.1547 72.4686 67.8092 78.8405 65.7348C85.0051 63.7279 93.1335 64.2805 97.9621 59.2501C99.2273 57.9321 100.431 54.538 100.962 52.7655C101.837 49.8494 120.507 22.282 122.323 19.969C143.062 8.59081 164.062 -10.4092 210.99 17.4497C215.486 17.4497 219.967 16.6099 224.29 16.6099C232.198 16.6099 234.635 27.8205 238.754 32.8916C243.151 38.3042 251.607 40.6837 255.279 46.4207C258.786 51.9019 263.246 57.8389 265.444 64.0553C266.877 68.1065 275.071 69.2995 275.475 72.8725C275.657 74.4808 277.917 79.8023 278.699 81.2699C280.382 84.4248 280.614 88.0724 282.103 91.3468C282.787 92.8516 282.633 93.8871 282.73 95.5455C282.841 97.465 284.342 97.8415 284.342 100.211C284.342 110.502 286.823 120.924 287.611 131.188C288.088 137.399 289.178 143.113 289.178 149.475V166.97C289.178 183.388 291.095 201.464 286.357 217.261C285 221.785 285.691 224.605 283.356 229.064C281.448 232.709 278.621 235.928 276.684 239.561C275.044 242.637 272.704 245.45 270.639 248.005L270.498 248.179C268.611 250.515 266.673 252.912 264.145 254.723C257.253 259.659 246.585 262.499 238.396 263.447C233.255 264.042 228.913 265.173 223.529 265.173H213.408C194.765 265.173 175.786 266.013 156.984 266.013H144.893C142.302 266.013 139.416 266.373 136.922 265.546C134.99 264.906 133.091 263.574 131.011 263.493C125.024 263.262 120.863 255.498 115.875 252.763C113.992 251.731 111.806 251.437 109.874 250.431C107.964 249.436 106.847 247.557 104.993 246.699C101.621 245.137 99.5404 241.59 97.9621 238.301C96.4794 235.212 93.4063 232.259 91.3344 229.484C90.4839 228.345 87.7252 225.138 87.6624 224.026C87.5755 222.487 87.1523 221.348 86.0503 220.2C84.5959 218.685 84.8014 217.334 83.6321 215.628C82.7866 214.395 83.2023 212.953 82.3782 211.849C80.9801 209.977 79.6714 209.002 79.6018 206.391C79.4865 202.069 77.1836 198.616 77.1836 194.261V186.5C77.1836 182.748 78.0616 176.5 80.2287 171.5C80.4078 152.5 72.0616 139.5 72.0616 139.5C59.5616 141 -0.959294 142.5 3.20499 131.654C4.54112 128.174 5.0382 122.932 8.26528 120.691C10.4855 119.149 12.8079 116.779 14.7586 114.859C17.9666 111.703 63.1423 114.015 78.0216 114.69ZM78.0216 114.69C79.5834 114.783 81.0114 114.84 82.2797 114.858M78.0216 114.69C80.0934 114.784 81.5778 114.847 82.2797 114.858M82.2797 114.858C82.3127 114.859 82.3455 114.859 82.3782 114.859M139.607 52.3406C142.837 53.0089 145.324 57.447 147.581 59.5627C150.489 62.2881 153.811 64.4977 157.058 66.7796M157.058 66.7796C159.268 68.3327 161.443 69.9193 163.43 71.7249C166.32 74.3529 168.691 78.2141 171.203 81.2289M157.058 66.7796C154.308 69.0025 151.443 71.075 148.584 73.1542C147.16 74.1903 143.462 76.1158 143.218 78.0692M157.058 66.7796C157.159 66.6979 157.26 66.616 157.361 66.534C161.617 63.0665 164.902 58.7044 168.495 54.5975M205.96 57.7571C209.509 57.7571 212.59 58.9279 215.765 60.4905C219.573 62.3649 223.432 64.3965 227.167 66.6252M227.167 66.6252C230.578 68.6606 233.885 70.8603 236.954 73.2545C239.375 75.1428 242.481 77.0856 243.876 79.8748M227.167 66.6252C223.128 71.817 218.659 76.7203 214.987 82.1317M227.167 66.6252C227.923 65.6537 228.664 64.6721 229.381 63.6752C230.789 61.7202 231.909 59.6446 233.243 57.6568C234.281 56.1105 235.838 54.8751 236.654 53.2433" stroke="black" stroke-width="6" stroke-linecap="round"/>
</svg>
