<svg width="292" height="269" viewBox="0 0 292 269" fill="none" xmlns="http://www.w3.org/2000/svg">
<path d="M86.0616 108C85.6628 108 62.9948 112.504 62.5616 112.5M86.0616 108C79.7903 112.5 62.9713 112.505 62.5616 112.5M86.0616 108L125.438 95.6405M62.5616 112.5C43.5087 112.257 7.15059 105.423 5.00565 99.2777C2.61796 92.4372 4.19934 86.7752 9.03596 81.7365C11.758 79.9455 18.5413 72.0328 25.605 72.0328C29.6116 71.6047 32.4418 69.779 36.0838 68.7672C42.7135 66.9254 49.9915 66.1547 56.8623 66.1547C63.5251 66.1547 72.0301 67.8092 78.4021 65.7348C84.5667 63.7279 92.6951 64.2805 97.5237 59.2501C98.7889 57.9321 99.9923 54.538 100.524 52.7655C101.399 49.8494 120.068 22.282 121.885 19.969C142.623 8.59081 163.623 -10.4092 210.552 17.4497C215.047 17.4497 219.529 16.6099 223.852 16.6099C231.759 16.6099 234.197 27.8205 238.316 32.8916C242.712 38.3042 251.169 40.6837 254.84 46.4207C258.348 51.9019 262.807 57.8389 265.006 64.0553C266.438 68.1065 274.633 69.2995 275.037 72.8725C275.218 74.4808 277.478 79.8023 278.261 81.2699C279.943 84.4248 280.175 88.0724 281.664 91.3468C282.348 92.8516 282.195 93.8871 282.291 95.5455C282.403 97.465 283.903 97.8415 283.903 100.211C283.903 110.502 286.384 120.924 287.172 131.188C287.649 137.399 288.74 143.113 288.74 149.475V166.97C288.74 183.388 290.657 201.464 285.918 217.261C284.561 221.785 285.253 224.605 282.918 229.064C281.01 232.709 278.183 235.928 276.246 239.561C274.605 242.637 272.265 245.45 270.2 248.005L270.059 248.179C268.172 250.515 266.235 252.912 263.707 254.723C256.815 259.659 246.146 262.499 237.958 263.447C232.817 264.042 228.475 265.173 223.09 265.173H212.97C194.326 265.173 175.347 266.013 156.545 266.013H144.454C141.864 266.013 138.977 266.373 136.483 265.546C134.551 264.906 132.652 263.574 130.572 263.493C124.586 263.262 120.424 255.498 115.436 252.763C113.553 251.731 111.368 251.437 109.435 250.431C107.526 249.436 106.409 247.557 104.554 246.699C101.182 245.137 99.1019 241.59 97.5237 238.301C96.041 235.212 92.9679 232.259 90.896 229.484C90.0455 228.345 87.2868 225.138 87.224 224.026C87.1371 222.487 86.7139 221.348 85.6118 220.2C84.1575 218.685 84.363 217.334 83.1937 215.628C82.3482 214.395 82.7639 212.953 81.9398 211.849C80.5417 209.977 79.233 209.002 79.1633 206.391C79.0481 202.069 76.7452 198.616 76.7452 194.261V186.5C76.7452 182.748 77.6232 176.5 79.7903 171.5C79.9694 152.5 71.6232 139.5 71.6232 139.5C59.1232 141 -1.39771 142.5 2.76658 131.654C4.10271 128.174 4.59978 122.932 7.82686 120.691C10.0471 119.149 12.3695 116.779 14.3201 114.859C17.9969 111.242 57.4245 112.447 62.5616 112.5ZM132.982 56.047L132.658 55.7227M205.964 67.0754H206.613M141.887 42.0676C137.409 42.0676 134.93 44.5213 134.034 45.6277C131.97 48.1762 128.148 49.0576 126.601 51.8791C122.411 59.5177 128.997 63.5338 134.93 65.7814C148.332 70.6725 157.596 41.2941 141.887 42.0676ZM218.536 56.0445C212.9 56.0445 199.996 53.2883 199.996 62.2959C199.996 67.8635 202.926 76.1982 208.863 76.1982C219.909 75.0845 222.657 76.1777 222.387 70.32C223.84 67.1234 223.84 56.0445 218.536 56.0445Z" stroke="black" stroke-width="5" stroke-linecap="round"/>
</svg>
