<svg width="292" height="269" viewBox="0 0 292 269" fill="none" xmlns="http://www.w3.org/2000/svg">
<path d="M79.7903 114.859C79.3915 114.859 30.8787 111.497 30.4455 111.493M79.7903 114.859C79.3668 114.859 30.8552 111.498 30.4455 111.493M79.7903 114.859L104.554 111.493M30.4455 111.493C11.3926 111.25 7.15059 105.423 5.00565 99.2777C2.61796 92.4372 4.19934 86.7752 9.03596 81.7365C11.758 79.9455 18.5413 72.0328 25.605 72.0328C29.6116 71.6047 32.4418 69.779 36.0838 68.7672C42.7135 66.9254 49.9915 66.1547 56.8623 66.1547C63.5251 66.1547 72.0301 67.8092 78.4021 65.7348C84.5667 63.7279 92.6951 64.2805 97.5237 59.2501C98.7889 57.9321 99.9923 54.538 100.524 52.7655C101.399 49.8494 120.068 22.282 121.885 19.969C142.623 8.59081 163.623 -10.4092 210.552 17.4497C215.047 17.4497 219.529 16.6099 223.852 16.6099C231.759 16.6099 234.197 27.8205 238.316 32.8916C242.712 38.3042 251.169 40.6837 254.84 46.4207C258.348 51.9019 262.807 57.8389 265.006 64.0553C266.438 68.1065 274.633 69.2995 275.037 72.8725C275.218 74.4808 277.478 79.8023 278.261 81.2699C279.943 84.4248 280.175 88.0724 281.664 91.3468C282.348 92.8516 282.195 93.8871 282.291 95.5455C282.403 97.465 283.903 97.8415 283.903 100.211C283.903 110.502 286.384 120.924 287.172 131.188C287.649 137.399 288.74 143.113 288.74 149.475V166.97C288.74 183.388 290.657 201.464 285.918 217.261C284.561 221.785 285.253 224.605 282.918 229.064C281.01 232.709 278.183 235.928 276.246 239.561C274.605 242.637 272.265 245.45 270.2 248.005L270.059 248.179C268.172 250.515 266.235 252.912 263.707 254.723C256.815 259.659 246.146 262.499 237.958 263.447C232.817 264.042 228.475 265.173 223.09 265.173H212.97C194.326 265.173 175.347 266.013 156.545 266.013H144.454C141.864 266.013 138.977 266.373 136.483 265.546C134.551 264.906 132.652 263.574 130.572 263.493C124.586 263.262 120.424 255.498 115.436 252.763C113.553 251.731 111.368 251.437 109.435 250.431C107.526 249.436 106.409 247.557 104.554 246.699C101.182 245.137 99.1019 241.59 97.5237 238.301C96.041 235.212 92.9679 232.259 90.896 229.484C90.0455 228.345 87.2868 225.138 87.224 224.026C87.1371 222.487 86.7139 221.348 85.6118 220.2C84.1575 218.685 84.363 217.334 83.1937 215.628C82.3482 214.395 82.7639 212.953 81.9398 211.849C80.5417 209.977 79.233 209.002 79.1633 206.391C79.0481 202.069 76.7452 198.616 76.7452 194.261V186.5C76.7452 182.748 77.6232 176.5 79.7903 171.5C79.9694 152.5 71.6232 139.5 71.6232 139.5C59.1232 141 -1.39771 142.5 2.76658 131.654C4.10271 128.174 4.59978 122.932 7.82686 120.691C10.0471 119.149 12.3695 116.779 14.3201 114.859C17.9969 111.242 25.3084 111.44 30.4455 111.493ZM127.69 63.9526V63.6736M197.446 68.9751C197.475 69.2355 197.586 69.3252 197.725 69.5331M134.453 48.319C129.975 48.319 127.497 50.7727 126.601 51.8791C124.537 54.4276 120.714 55.309 119.167 58.1305C114.977 65.7691 121.563 69.7852 127.496 72.0328C140.898 76.9239 150.162 47.5455 134.453 48.319ZM208.863 56.9175C203.228 56.9175 190.324 54.1614 190.324 63.1689C190.324 68.7366 193.253 77.0713 199.19 77.0713C205.572 77.0713 209.693 77.8376 212.714 71.1931C214.168 67.9965 214.168 56.9175 208.863 56.9175Z" stroke="black" stroke-width="5" stroke-linecap="round"/>
</svg>
